<svg width="32" height="32" viewBox="0 0 32 32" fill="none" xmlns="http://www.w3.org/2000/svg">
<path fill-rule="evenodd" clip-rule="evenodd" d="M13.666 28.8335C13.666 29.3197 13.4729 29.786 13.129 30.1299C12.7852 30.4737 12.3189 30.6668 11.8327 30.6668C11.3465 30.6668 10.8801 30.4737 10.5363 30.1299C10.1925 29.786 9.99935 29.3197 9.99935 28.8335V8.66683C9.99935 8.1806 10.1925 7.71428 10.5363 7.37047C10.8801 7.02665 11.3465 6.8335 11.8327 6.8335C12.3189 6.8335 12.7852 7.02665 13.129 7.37047C13.4729 7.71428 13.666 8.1806 13.666 8.66683V28.8335ZM6.33268 28.8335C6.33268 29.3197 6.13953 29.786 5.79571 30.1299C5.45189 30.4737 4.98558 30.6668 4.49935 30.6668C4.01312 30.6668 3.5468 30.4737 3.20299 30.1299C2.85917 29.786 2.66602 29.3197 2.66602 28.8335V16.0002C2.66602 15.5139 2.85917 15.0476 3.20299 14.7038C3.5468 14.36 4.01312 14.1668 4.49935 14.1668C4.98558 14.1668 5.45189 14.36 5.79571 14.7038C6.13953 15.0476 6.33268 15.5139 6.33268 16.0002V28.8335ZM17.3327 28.8335V12.3335C17.3327 11.8473 17.5258 11.381 17.8697 11.0371C18.2135 10.6933 18.6798 10.5002 19.166 10.5002C19.6522 10.5002 20.1186 10.6933 20.4624 11.0371C20.8062 11.381 20.9994 11.8473 20.9994 12.3335V28.8335C20.9994 29.3197 20.8062 29.786 20.4624 30.1299C20.1186 30.4737 19.6522 30.6668 19.166 30.6668C18.6798 30.6668 18.2135 30.4737 17.8697 30.1299C17.5258 29.786 17.3327 29.3197 17.3327 28.8335ZM24.666 3.16683C24.666 2.6806 24.8592 2.21428 25.203 1.87047C25.5468 1.52665 26.0131 1.3335 26.4994 1.3335C26.9856 1.3335 27.4519 1.52665 27.7957 1.87047C28.1395 2.21428 28.3327 2.6806 28.3327 3.16683V28.8335C28.3327 29.3197 28.1395 29.786 27.7957 30.1299C27.4519 30.4737 26.9856 30.6668 26.4994 30.6668C26.0131 30.6668 25.5468 30.4737 25.203 30.1299C24.8592 29.786 24.666 29.3197 24.666 28.8335V3.16683Z" fill="#CFBB95"/>
</svg>
