<svg width="33" height="32" viewBox="0 0 33 32" fill="none" xmlns="http://www.w3.org/2000/svg">
<g clip-path="url(#clip0_3001_3831)">
<path fill-rule="evenodd" clip-rule="evenodd" d="M0.5 3.99984C0.5 3.26346 1.09695 2.6665 1.83333 2.6665H31.1667C31.903 2.6665 32.5 3.26346 32.5 3.99984V10.6665C32.5 11.4029 31.903 11.9998 31.1667 11.9998H29.8333V27.9998C29.8333 28.7362 29.2364 29.3332 28.5 29.3332H4.5C3.76362 29.3332 3.16667 28.7362 3.16667 27.9998V11.9998H1.83333C1.09695 11.9998 0.5 11.4029 0.5 10.6665V3.99984ZM5.83333 11.9998V26.6665H27.1667V11.9998H5.83333ZM29.8333 9.33317H3.16667V5.33317H29.8333V9.33317ZM12.5 15.9998C12.5 15.2635 13.097 14.6665 13.8333 14.6665H19.1667C19.903 14.6665 20.5 15.2635 20.5 15.9998C20.5 16.7362 19.903 17.3332 19.1667 17.3332H13.8333C13.097 17.3332 12.5 16.7362 12.5 15.9998Z" fill="#C0D5F3"/>
</g>
<defs>
<clipPath id="clip0_3001_3831">
<rect width="32" height="32" fill="white" transform="translate(0.5)"/>
</clipPath>
</defs>
</svg>
