<svg width="32" height="32" viewBox="0 0 32 32" fill="none" xmlns="http://www.w3.org/2000/svg">
<path fill-rule="evenodd" clip-rule="evenodd" d="M16.0007 2.66667C11.5824 2.66667 8.00065 6.24839 8.00065 10.6667C8.00065 15.0849 11.5824 18.6667 16.0007 18.6667C17.5524 18.6667 19.001 18.2248 20.2275 17.4601C20.2938 17.4077 20.3653 17.3613 20.4414 17.322C22.5875 15.8872 24.0006 13.442 24.0006 10.6667C24.0006 6.24839 20.4189 2.66667 16.0007 2.66667ZM22.4828 19.1384C25.0268 17.1889 26.6673 14.1194 26.6673 10.6667C26.6673 4.77563 21.8917 0 16.0007 0C10.1096 0 5.33398 4.77563 5.33398 10.6667C5.33398 14.1201 6.9751 17.1901 9.51998 19.1396L8.01226 30.4911C7.94485 30.9987 8.17401 31.5 8.60193 31.7811C9.02986 32.0622 9.58095 32.0734 10.02 31.81L16.0007 28.2216L21.9813 31.81C22.4203 32.0734 22.9714 32.0622 23.3993 31.7811C23.8272 31.5001 24.0564 30.9988 23.9891 30.4913L22.4828 19.1384ZM19.9821 20.5655C18.7519 21.0607 17.4081 21.3333 16.0007 21.3333C14.5937 21.3333 13.2504 21.0609 12.0206 20.566L11.0199 28.1002L15.3147 25.5233C15.7369 25.27 16.2644 25.27 16.6866 25.5233L20.9818 28.1005L19.9821 20.5655Z" fill="#CFBB95"/>
</svg>
