<svg width="32" height="33" viewBox="0 0 32 33" fill="none" xmlns="http://www.w3.org/2000/svg">
<path fill-rule="evenodd" clip-rule="evenodd" d="M20.884 5.22125C18.5203 4.16806 15.8795 3.90715 13.3554 4.47743C10.8313 5.04771 8.55921 6.41864 6.87792 8.38574C5.19663 10.3528 4.19626 12.8107 4.02599 15.3928C3.85573 17.9749 4.5247 20.5429 5.93313 22.7137C7.34157 24.8846 9.414 26.542 11.8413 27.4388C14.2687 28.3355 16.9209 28.4236 19.4024 27.6899C21.8839 26.9562 24.0618 25.44 25.6112 23.3674C27.1606 21.2949 27.9985 18.777 28 16.1893V14.9634C28 14.227 28.5969 13.63 29.3333 13.63C30.0697 13.63 30.6667 14.227 30.6667 14.9634V16.19C30.6648 19.3528 29.6407 22.431 27.747 24.9641C25.8533 27.4973 23.1915 29.3504 20.1585 30.2472C17.1255 31.1439 13.884 31.0362 10.9172 29.9402C7.95045 28.8441 5.41747 26.8184 3.69605 24.1651C1.97464 21.5119 1.15701 18.3733 1.36511 15.2174C1.5732 12.0615 2.79588 9.05739 4.85079 6.65315C6.9057 4.24891 9.68273 2.57334 12.7677 1.87633C15.8527 1.17931 19.0804 1.49821 21.9693 2.78545C22.642 3.08515 22.9443 3.87339 22.6446 4.54602C22.3449 5.21865 21.5566 5.52096 20.884 5.22125Z" fill="#3263AC"/>
<path fill-rule="evenodd" clip-rule="evenodd" d="M30.2757 4.58007C30.7966 5.10051 30.797 5.94473 30.2766 6.46569L16.9433 19.8124C16.6933 20.0626 16.3541 20.2033 16.0003 20.2034C15.6466 20.2034 15.3073 20.063 15.0572 19.8128L11.0572 15.8128C10.5365 15.2921 10.5365 14.4479 11.0572 13.9272C11.5779 13.4065 12.4221 13.4065 12.9428 13.9272L15.9995 16.9839L28.39 4.58101C28.9105 4.06005 29.7547 4.05963 30.2757 4.58007Z" fill="#3263AC"/>
</svg>
