<svg width="33" height="32" viewBox="0 0 33 32" fill="none" xmlns="http://www.w3.org/2000/svg">
<path d="M8.28571 7.61921H10.381V11.8097H8.28571V7.61921Z" fill="#CFBB95"/>
<path d="M8.28571 13.9049H10.381V18.0954H8.28571V13.9049Z" fill="#CFBB95"/>
<path d="M14.5714 7.61921H16.6667V11.8097H14.5714V7.61921Z" fill="#CFBB95"/>
<path d="M14.5714 13.9049H16.6667V18.0954H14.5714V13.9049Z" fill="#CFBB95"/>
<path d="M8.28571 20.1906H10.381V24.3811H8.28571V20.1906Z" fill="#CFBB95"/>
<path d="M14.5714 20.1906H16.6667V24.3811H14.5714V20.1906Z" fill="#CFBB95"/>
<path d="M31.3333 13.9049C31.3333 13.3492 31.1126 12.8163 30.7197 12.4234C30.3267 12.0304 29.7938 11.8097 29.2381 11.8097H22.9524V3.42873C22.9524 2.87304 22.7316 2.34011 22.3387 1.94718C21.9458 1.55424 21.4128 1.3335 20.8571 1.3335H4.09524C3.53955 1.3335 3.00661 1.55424 2.61368 1.94718C2.22075 2.34011 2 2.87304 2 3.42873V30.6668H31.3333V13.9049ZM4.09524 3.42873H20.8571V28.5716H4.09524V3.42873ZM22.9524 28.5716V13.9049H29.2381V28.5716H22.9524Z" fill="#CFBB95"/>
</svg>
