<svg width="32" height="32" viewBox="0 0 32 32" fill="none" xmlns="http://www.w3.org/2000/svg">
<g clip-path="url(#clip0_3001_1967)">
<path fill-rule="evenodd" clip-rule="evenodd" d="M6.07505 3.3089C6.07344 3.30394 6.07187 3.29896 6.07036 3.29397L6.07505 3.3089ZM6.80952 5.56383L9.33178 13.3064C9.51059 13.8552 10.0223 14.2267 10.5995 14.2267H21.3995C21.9772 14.2267 22.4891 13.8547 22.6676 13.3054L25.1819 5.56682L27.7048 13.332L29.3372 18.1652L15.9995 27.8584L2.71365 18.2028L6.80952 5.56383ZM25.6939 3.65558L25.6988 3.65116C25.6972 3.65264 25.6955 3.65411 25.6939 3.65558ZM5.52941 1.68002C5.88045 1.36048 6.3381 1.18335 6.81288 1.18335C7.28874 1.18335 7.74741 1.3613 8.09877 1.68223C8.10803 1.69069 8.11717 1.69928 8.12619 1.708C8.35362 1.92783 8.52229 2.20107 8.6169 2.50271L11.5675 11.56H20.4308L23.3848 2.46803C23.3923 2.44483 23.4005 2.42184 23.4093 2.39908C23.5156 2.12424 23.6846 1.87803 23.9027 1.68002C24.2538 1.36048 24.7114 1.18335 25.1862 1.18335C25.6621 1.18335 26.1207 1.36129 26.4721 1.68223C26.4814 1.69069 26.4905 1.69928 26.4995 1.708C26.7271 1.92798 26.8959 2.20146 26.9904 2.50337L30.2385 12.5006L31.9294 17.5067C31.9321 17.5146 31.9347 17.5225 31.9372 17.5305C31.9404 17.5405 31.9434 17.5505 31.9464 17.5606C32.0939 18.0672 32.0742 18.608 31.89 19.1026C31.7109 19.5837 31.3854 19.9962 30.9599 20.2823L16.7834 30.5853C16.316 30.9249 15.6831 30.9249 15.2157 30.5853L1.01567 20.2653L1.00959 20.2608C0.592597 19.9542 0.283285 19.5234 0.125908 19.0303C-0.03093 18.5389 -0.0288623 18.0106 0.131741 17.5205L5.01146 2.46803C5.019 2.44483 5.02717 2.42184 5.03597 2.39908C5.14226 2.12425 5.31123 1.87803 5.52941 1.68002ZM23.9027 1.68002C23.9036 1.67928 23.9044 1.67855 23.9052 1.67781L24.7995 2.6667L23.9003 1.68223C23.9011 1.68149 23.9019 1.68075 23.9027 1.68002Z" fill="#CFBB95"/>
</g>
<defs>
<clipPath id="clip0_3001_1967">
<rect width="32" height="32" fill="white"/>
</clipPath>
</defs>
</svg>
