<svg width="33" height="32" viewBox="0 0 33 32" fill="none" xmlns="http://www.w3.org/2000/svg">
<path fill-rule="evenodd" clip-rule="evenodd" d="M15.8487 1.61412C16.3302 1.23963 17.0044 1.23963 17.4859 1.61412L29.4859 10.9474C29.8107 11.2001 30.0007 11.5885 30.0007 11.9999V26.6666C30.0007 27.7275 29.5792 28.7449 28.8291 29.495C28.0789 30.2452 27.0615 30.6666 26.0007 30.6666H7.33398C6.27312 30.6666 5.2557 30.2452 4.50556 29.495C3.75541 28.7449 3.33398 27.7275 3.33398 26.6666V11.9999C3.33398 11.5885 3.52395 11.2001 3.84873 10.9474L15.8487 1.61412ZM6.00065 12.652V26.6666C6.00065 27.0202 6.14113 27.3593 6.39118 27.6094C6.64122 27.8594 6.98036 27.9999 7.33398 27.9999H26.0007C26.3543 27.9999 26.6934 27.8594 26.9435 27.6094C27.1935 27.3593 27.334 27.0202 27.334 26.6666V12.652L16.6673 4.35573L6.00065 12.652Z" fill="#CFBB95"/>
<path fill-rule="evenodd" clip-rule="evenodd" d="M11.334 15.9999C11.334 15.2635 11.9309 14.6666 12.6673 14.6666H20.6673C21.4037 14.6666 22.0007 15.2635 22.0007 15.9999V29.3333C22.0007 30.0696 21.4037 30.6666 20.6673 30.6666C19.9309 30.6666 19.334 30.0696 19.334 29.3333V17.3333H14.0007V29.3333C14.0007 30.0696 13.4037 30.6666 12.6673 30.6666C11.9309 30.6666 11.334 30.0696 11.334 29.3333V15.9999Z" fill="#CFBB95"/>
</svg>
