<svg width="22" height="22" viewBox="0 0 22 22" fill="none" xmlns="http://www.w3.org/2000/svg">
<path fill-rule="evenodd" clip-rule="evenodd" d="M15 8.18994C13.6739 8.18994 12.4021 8.71673 11.4645 9.65441C10.5268 10.5921 10 11.8639 10 13.1899V19.1899H12V13.1899C12 12.3943 12.3161 11.6312 12.8787 11.0686C13.4413 10.506 14.2043 10.1899 15 10.1899C15.7957 10.1899 16.5587 10.506 17.1213 11.0686C17.6839 11.6312 18 12.3943 18 13.1899V19.1899H20V13.1899C20 11.8639 19.4732 10.5921 18.5355 9.65441C17.5979 8.71673 16.3261 8.18994 15 8.18994ZM15 6.18994C13.1435 6.18994 11.363 6.92744 10.0503 8.24019C8.7375 9.55295 8 11.3334 8 13.1899V20.1899C8 20.7422 8.44771 21.1899 9 21.1899H13C13.5523 21.1899 14 20.7422 14 20.1899V13.1899C14 12.9247 14.1054 12.6704 14.2929 12.4828C14.4804 12.2953 14.7348 12.1899 15 12.1899C15.2652 12.1899 15.5196 12.2953 15.7071 12.4828C15.8946 12.6704 16 12.9247 16 13.1899V20.1899C16 20.7422 16.4477 21.1899 17 21.1899H21C21.5523 21.1899 22 20.7422 22 20.1899V13.1899C22 11.3334 21.2625 9.55295 19.9497 8.24019C18.637 6.92744 16.8565 6.18994 15 6.18994Z" fill="#0E1E37"/>
<path fill-rule="evenodd" clip-rule="evenodd" d="M0 8.18994C0 7.63766 0.447715 7.18994 1 7.18994H5C5.55228 7.18994 6 7.63766 6 8.18994V20.1899C6 20.7422 5.55228 21.1899 5 21.1899H1C0.447715 21.1899 0 20.7422 0 20.1899V8.18994ZM2 9.18994V19.1899H4V9.18994H2Z" fill="#0E1E37"/>
<path fill-rule="evenodd" clip-rule="evenodd" d="M3 2.18994C2.44772 2.18994 2 2.63766 2 3.18994C2 3.74223 2.44772 4.18994 3 4.18994C3.55228 4.18994 4 3.74223 4 3.18994C4 2.63766 3.55228 2.18994 3 2.18994ZM0 3.18994C0 1.53309 1.34315 0.189941 3 0.189941C4.65685 0.189941 6 1.53309 6 3.18994C6 4.8468 4.65685 6.18994 3 6.18994C1.34315 6.18994 0 4.8468 0 3.18994Z" fill="#0E1E37"/>
</svg>
