<svg width="33" height="32" viewBox="0 0 33 32" fill="none" xmlns="http://www.w3.org/2000/svg">
<path fill-rule="evenodd" clip-rule="evenodd" d="M16.6667 1.33325C17.403 1.33325 18 1.93021 18 2.66659V7.99992C18 8.7363 17.403 9.33325 16.6667 9.33325C15.9303 9.33325 15.3333 8.7363 15.3333 7.99992V2.66659C15.3333 1.93021 15.9303 1.33325 16.6667 1.33325Z" fill="#CFBB95"/>
<path fill-rule="evenodd" clip-rule="evenodd" d="M16.6667 22.6666C17.403 22.6666 18 23.2635 18 23.9999V29.3333C18 30.0696 17.403 30.6666 16.6667 30.6666C15.9303 30.6666 15.3333 30.0696 15.3333 29.3333V23.9999C15.3333 23.2635 15.9303 22.6666 16.6667 22.6666Z" fill="#CFBB95"/>
<path fill-rule="evenodd" clip-rule="evenodd" d="M6.29719 5.63044C6.81789 5.10974 7.66211 5.10974 8.18281 5.63044L11.9561 9.40378C12.4768 9.92448 12.4768 10.7687 11.9561 11.2894C11.4354 11.8101 10.5912 11.8101 10.0705 11.2894L6.29719 7.51606C5.77649 6.99536 5.77649 6.15114 6.29719 5.63044Z" fill="#CFBB95"/>
<path fill-rule="evenodd" clip-rule="evenodd" d="M21.3772 20.7104C21.8979 20.1897 22.7421 20.1897 23.2628 20.7104L27.0361 24.4838C27.5568 25.0045 27.5568 25.8487 27.0361 26.3694C26.5154 26.8901 25.6712 26.8901 25.1505 26.3694L21.3772 22.5961C20.8565 22.0754 20.8565 21.2311 21.3772 20.7104Z" fill="#CFBB95"/>
<path fill-rule="evenodd" clip-rule="evenodd" d="M2 15.9999C2 15.2635 2.59695 14.6666 3.33333 14.6666H8.66667C9.40305 14.6666 10 15.2635 10 15.9999C10 16.7363 9.40305 17.3333 8.66667 17.3333H3.33333C2.59695 17.3333 2 16.7363 2 15.9999Z" fill="#CFBB95"/>
<path fill-rule="evenodd" clip-rule="evenodd" d="M23.3333 15.9999C23.3333 15.2635 23.9303 14.6666 24.6667 14.6666H30C30.7364 14.6666 31.3333 15.2635 31.3333 15.9999C31.3333 16.7363 30.7364 17.3333 30 17.3333H24.6667C23.9303 17.3333 23.3333 16.7363 23.3333 15.9999Z" fill="#CFBB95"/>
<path fill-rule="evenodd" clip-rule="evenodd" d="M11.9561 20.7104C12.4768 21.2311 12.4768 22.0754 11.9561 22.5961L8.18281 26.3694C7.66211 26.8901 6.81789 26.8901 6.29719 26.3694C5.77649 25.8487 5.77649 25.0045 6.29719 24.4838L10.0705 20.7104C10.5912 20.1897 11.4354 20.1897 11.9561 20.7104Z" fill="#CFBB95"/>
<path fill-rule="evenodd" clip-rule="evenodd" d="M27.0361 5.63044C27.5568 6.15114 27.5568 6.99536 27.0361 7.51606L23.2628 11.2894C22.7421 11.8101 21.8979 11.8101 21.3772 11.2894C20.8565 10.7687 20.8565 9.92448 21.3772 9.40378L25.1505 5.63044C25.6712 5.10974 26.5154 5.10974 27.0361 5.63044Z" fill="#CFBB95"/>
</svg>
