<svg width="33" height="32" viewBox="0 0 33 32" fill="none" xmlns="http://www.w3.org/2000/svg">
<path fill-rule="evenodd" clip-rule="evenodd" d="M19.334 4.00008C19.334 3.2637 19.9309 2.66675 20.6673 2.66675H26.0007C27.0615 2.66675 28.0789 3.08818 28.8291 3.83832C29.5792 4.58847 30.0007 5.60588 30.0007 6.66675V25.3334C30.0007 26.3943 29.5792 27.4117 28.8291 28.1618C28.0789 28.912 27.0615 29.3334 26.0007 29.3334H20.6673C19.9309 29.3334 19.334 28.7365 19.334 28.0001C19.334 27.2637 19.9309 26.6667 20.6673 26.6667H26.0007C26.3543 26.6667 26.6934 26.5263 26.9435 26.2762C27.1935 26.0262 27.334 25.687 27.334 25.3334V6.66675C27.334 6.31313 27.1935 5.97399 26.9435 5.72394C26.6934 5.47389 26.3543 5.33341 26.0007 5.33341H20.6673C19.9309 5.33341 19.334 4.73646 19.334 4.00008Z" fill="#CFBB95"/>
<path fill-rule="evenodd" clip-rule="evenodd" d="M13.0578 8.39061C13.5785 7.86991 14.4228 7.86991 14.9435 8.39061L21.6101 15.0573C22.1308 15.578 22.1308 16.4222 21.6101 16.9429L14.9435 23.6096C14.4228 24.1303 13.5785 24.1303 13.0578 23.6096C12.5371 23.0889 12.5371 22.2446 13.0578 21.7239L18.7817 16.0001L13.0578 10.2762C12.5371 9.75552 12.5371 8.9113 13.0578 8.39061Z" fill="#CFBB95"/>
<path fill-rule="evenodd" clip-rule="evenodd" d="M3.33398 16.0001C3.33398 15.2637 3.93094 14.6667 4.66732 14.6667H20.6673C21.4037 14.6667 22.0007 15.2637 22.0007 16.0001C22.0007 16.7365 21.4037 17.3334 20.6673 17.3334H4.66732C3.93094 17.3334 3.33398 16.7365 3.33398 16.0001Z" fill="#CFBB95"/>
</svg>
