<svg width="32" height="33" viewBox="0 0 32 33" fill="none" xmlns="http://www.w3.org/2000/svg">
<path fill-rule="evenodd" clip-rule="evenodd" d="M6.66699 5.52336C6.31337 5.52336 5.97423 5.66383 5.72418 5.91388C5.47413 6.16393 5.33366 6.50307 5.33366 6.85669V25.5234C5.33366 25.877 5.47413 26.2161 5.72418 26.4662C5.97423 26.7162 6.31337 26.8567 6.66699 26.8567H12.0003C12.7367 26.8567 13.3337 27.4536 13.3337 28.19C13.3337 28.9264 12.7367 29.5234 12.0003 29.5234H6.66699C5.60613 29.5234 4.58871 29.1019 3.83856 28.3518C3.08842 27.6016 2.66699 26.5842 2.66699 25.5234V6.85669C2.66699 5.79582 3.08842 4.77841 3.83856 4.02826C4.58871 3.27812 5.60613 2.85669 6.66699 2.85669H12.0003C12.7367 2.85669 13.3337 3.45364 13.3337 4.19002C13.3337 4.9264 12.7367 5.52336 12.0003 5.52336H6.66699Z" fill="#C0D5F3"/>
<path fill-rule="evenodd" clip-rule="evenodd" d="M20.3909 8.58055C20.9116 8.05985 21.7558 8.05985 22.2765 8.58055L28.9431 15.2472C29.4638 15.7679 29.4638 16.6121 28.9431 17.1328L22.2765 23.7995C21.7558 24.3202 20.9116 24.3202 20.3909 23.7995C19.8702 23.2788 19.8702 22.4346 20.3909 21.9139L26.1147 16.19L20.3909 10.4662C19.8702 9.94547 19.8702 9.10125 20.3909 8.58055Z" fill="#C0D5F3"/>
<path fill-rule="evenodd" clip-rule="evenodd" d="M10.667 16.19C10.667 15.4536 11.2639 14.8567 12.0003 14.8567H28.0003C28.7367 14.8567 29.3337 15.4536 29.3337 16.19C29.3337 16.9264 28.7367 17.5234 28.0003 17.5234H12.0003C11.2639 17.5234 10.667 16.9264 10.667 16.19Z" fill="#C0D5F3"/>
</svg>
