<svg width="32" height="33" viewBox="0 0 32 33" fill="none" xmlns="http://www.w3.org/2000/svg">
<g clip-path="url(#clip0_629_1189)">
<path fill-rule="evenodd" clip-rule="evenodd" d="M16 2.85661C13.171 2.85661 10.4579 3.98041 8.45749 5.9808C6.4571 7.98119 5.33329 10.6943 5.33329 13.5233C5.33329 17.654 8.02094 21.6623 10.9679 24.7729C12.4141 26.2995 13.8649 27.5492 14.9555 28.4177C15.3614 28.741 15.716 29.0102 16 29.22C16.2839 29.0102 16.6385 28.741 17.0444 28.4177C18.1351 27.5492 19.5858 26.2995 21.032 24.7729C23.979 21.6623 26.6666 17.654 26.6666 13.5233C26.6666 10.6943 25.5428 7.98119 23.5424 5.9808C21.542 3.98041 18.8289 2.85661 16 2.85661ZM16 30.8566C15.2604 31.966 15.2596 31.9655 15.2596 31.9655L15.2558 31.963L15.2469 31.957L15.2164 31.9363C15.1904 31.9187 15.1534 31.8934 15.106 31.8606C15.0113 31.795 14.8752 31.6994 14.7037 31.5755C14.3607 31.3278 13.8751 30.9662 13.2944 30.5038C12.1351 29.5807 10.5858 28.247 9.03202 26.6069C5.97898 23.3843 2.66663 18.7259 2.66663 13.5233C2.66663 9.98705 4.07138 6.59567 6.57187 4.09518C9.07235 1.5947 12.4637 0.189941 16 0.189941C19.5362 0.189941 22.9276 1.5947 25.4281 4.09518C27.9285 6.59567 29.3333 9.98705 29.3333 13.5233C29.3333 18.7259 26.0209 23.3843 22.9679 26.6069C21.4141 28.247 19.8648 29.5807 18.7055 30.5038C18.1248 30.9662 17.6392 31.3278 17.2962 31.5755C17.1247 31.6994 16.9886 31.795 16.8939 31.8606C16.8465 31.8934 16.8095 31.9187 16.7835 31.9363L16.753 31.957L16.7441 31.963L16.7413 31.9649C16.7413 31.9649 16.7396 31.966 16 30.8566ZM16 30.8566L16.7396 31.966C16.2917 32.2646 15.7075 32.2641 15.2596 31.9655L16 30.8566Z" fill="#3263AC"/>
<path fill-rule="evenodd" clip-rule="evenodd" d="M16 10.8566C14.5272 10.8566 13.3333 12.0505 13.3333 13.5233C13.3333 14.996 14.5272 16.1899 16 16.1899C17.4727 16.1899 18.6666 14.996 18.6666 13.5233C18.6666 12.0505 17.4727 10.8566 16 10.8566ZM10.6666 13.5233C10.6666 10.5778 13.0544 8.18994 16 8.18994C18.9455 8.18994 21.3333 10.5778 21.3333 13.5233C21.3333 16.4688 18.9455 18.8566 16 18.8566C13.0544 18.8566 10.6666 16.4688 10.6666 13.5233Z" fill="#3263AC"/>
</g>
<defs>
<clipPath id="clip0_629_1189">
<rect width="32" height="32" fill="white" transform="translate(0 0.189941)"/>
</clipPath>
</defs>
</svg>
