<svg width="32" height="32" viewBox="0 0 32 32" fill="none" xmlns="http://www.w3.org/2000/svg">
<path fill-rule="evenodd" clip-rule="evenodd" d="M10.0051 1.50905C10.3922 1.28787 10.8642 1.27477 11.263 1.47414L21.2914 6.48835L30.0051 1.50905C30.4178 1.27324 30.9248 1.27493 31.3359 1.51349C31.747 1.75206 32 2.19141 32 2.66671V24C32 24.4785 31.7436 24.9203 31.3282 25.1577L21.9949 30.491C21.6078 30.7122 21.1358 30.7253 20.737 30.5259L10.7086 25.5117L1.99485 30.491C1.58218 30.7268 1.07518 30.7251 0.664097 30.4866C0.253011 30.248 0 29.8087 0 29.3334V8.00004C0 7.52156 0.256381 7.07977 0.671815 6.84238L10.0051 1.50905ZM12 23.176L20 27.176V8.82409L12 4.82409V23.176ZM9.33333 4.96428V23.2263L2.66667 27.0358V8.7738L9.33333 4.96428ZM22.6667 8.7738V27.0358L29.3333 23.2263V4.96428L22.6667 8.7738Z" fill="#CFBB95"/>
</svg>
