<svg width="33" height="32" viewBox="0 0 33 32" fill="none" xmlns="http://www.w3.org/2000/svg">
<g clip-path="url(#clip0_3001_3816)">
<path fill-rule="evenodd" clip-rule="evenodd" d="M0.5 3.99984C0.5 3.26346 1.09695 2.6665 1.83333 2.6665H21.8333C22.5697 2.6665 23.1667 3.26346 23.1667 3.99984V21.3332C23.1667 22.0695 22.5697 22.6665 21.8333 22.6665H1.83333C1.09695 22.6665 0.5 22.0695 0.5 21.3332V3.99984ZM3.16667 5.33317V19.9998H20.5V5.33317H3.16667Z" fill="#CFBB95"/>
<path fill-rule="evenodd" clip-rule="evenodd" d="M20.5 10.6665C20.5 9.93012 21.097 9.33317 21.8333 9.33317H27.1667C27.5203 9.33317 27.8594 9.47365 28.1095 9.72369L32.1095 13.7237C32.3595 13.9737 32.5 14.3129 32.5 14.6665V21.3332C32.5 22.0695 31.903 22.6665 31.1667 22.6665H21.8333C21.097 22.6665 20.5 22.0695 20.5 21.3332V10.6665ZM23.1667 11.9998V19.9998H29.8333V15.2188L26.6144 11.9998H23.1667Z" fill="#CFBB95"/>
<path fill-rule="evenodd" clip-rule="evenodd" d="M7.83333 22.6665C6.72876 22.6665 5.83333 23.5619 5.83333 24.6665C5.83333 25.7711 6.72876 26.6665 7.83333 26.6665C8.9379 26.6665 9.83333 25.7711 9.83333 24.6665C9.83333 23.5619 8.9379 22.6665 7.83333 22.6665ZM3.16667 24.6665C3.16667 22.0892 5.256 19.9998 7.83333 19.9998C10.4107 19.9998 12.5 22.0892 12.5 24.6665C12.5 27.2438 10.4107 29.3332 7.83333 29.3332C5.256 29.3332 3.16667 27.2438 3.16667 24.6665Z" fill="#CFBB95"/>
<path fill-rule="evenodd" clip-rule="evenodd" d="M25.1667 22.6665C24.0621 22.6665 23.1667 23.5619 23.1667 24.6665C23.1667 25.7711 24.0621 26.6665 25.1667 26.6665C26.2712 26.6665 27.1667 25.7711 27.1667 24.6665C27.1667 23.5619 26.2712 22.6665 25.1667 22.6665ZM20.5 24.6665C20.5 22.0892 22.5893 19.9998 25.1667 19.9998C27.744 19.9998 29.8333 22.0892 29.8333 24.6665C29.8333 27.2438 27.744 29.3332 25.1667 29.3332C22.5893 29.3332 20.5 27.2438 20.5 24.6665Z" fill="#CFBB95"/>
</g>
<defs>
<clipPath id="clip0_3001_3816">
<rect width="32" height="32" fill="white" transform="translate(0.5)"/>
</clipPath>
</defs>
</svg>
