<svg width="32" height="33" viewBox="0 0 32 33" fill="none" xmlns="http://www.w3.org/2000/svg">
<path fill-rule="evenodd" clip-rule="evenodd" d="M12 5.77323C9.79086 5.77323 8 7.5641 8 9.77323C8 11.9824 9.79086 13.7732 12 13.7732C14.2091 13.7732 16 11.9824 16 9.77323C16 7.5641 14.2091 5.77323 12 5.77323ZM5.33333 9.77323C5.33333 6.09134 8.3181 3.10657 12 3.10657C15.6819 3.10657 18.6667 6.09134 18.6667 9.77323C18.6667 13.4551 15.6819 16.4399 12 16.4399C8.3181 16.4399 5.33333 13.4551 5.33333 9.77323ZM20.0417 4.28252C20.2243 3.56915 20.9507 3.13892 21.6641 3.32157C23.0981 3.68874 24.3691 4.52274 25.2768 5.69208C26.1845 6.86143 26.6771 8.29962 26.6771 9.7799C26.6771 11.2602 26.1845 12.6984 25.2768 13.8677C24.3691 15.0371 23.0981 15.8711 21.6641 16.2382C20.9507 16.4209 20.2243 15.9907 20.0417 15.2773C19.859 14.5639 20.2892 13.8376 21.0026 13.6549C21.863 13.4346 22.6257 12.9342 23.1703 12.2326C23.7149 11.531 24.0105 10.6681 24.0105 9.7799C24.0105 8.89173 23.7149 8.02882 23.1703 7.32721C22.6257 6.6256 21.863 6.1252 21.0026 5.9049C20.2892 5.72225 19.859 4.99588 20.0417 4.28252ZM1.95262 21.0592C3.20286 19.8089 4.89856 19.1066 6.66667 19.1066H17.3333C19.1014 19.1066 20.7971 19.8089 22.0474 21.0592C23.2976 22.3094 24 24.0051 24 25.7732V28.4399C24 29.1763 23.403 29.7732 22.6667 29.7732C21.9303 29.7732 21.3333 29.1763 21.3333 28.4399V25.7732C21.3333 24.7124 20.9119 23.695 20.1618 22.9448C19.4116 22.1947 18.3942 21.7732 17.3333 21.7732H6.66667C5.6058 21.7732 4.58839 22.1947 3.83824 22.9448C3.08809 23.695 2.66667 24.7124 2.66667 25.7732V28.4399C2.66667 29.1763 2.06971 29.7732 1.33333 29.7732C0.596954 29.7732 0 29.1763 0 28.4399V25.7732C0 24.0051 0.702379 22.3094 1.95262 21.0592ZM25.3757 20.2799C25.5598 19.5669 26.287 19.1381 27 19.3222C28.4302 19.6915 29.6973 20.5253 30.6023 21.6928C31.5073 22.8602 31.9989 24.2951 32 25.7722V28.4399C32 29.1763 31.403 29.7732 30.6667 29.7732C29.9303 29.7732 29.3333 29.1763 29.3333 28.4399V25.7742C29.3327 24.888 29.0377 24.027 28.4947 23.3265C27.9517 22.6261 27.1915 22.1258 26.3333 21.9042C25.6203 21.7201 25.1916 20.9929 25.3757 20.2799Z" fill="#C0D5F3"/>
</svg>
