<svg width="33" height="32" viewBox="0 0 33 32" fill="none" xmlns="http://www.w3.org/2000/svg">
<g clip-path="url(#clip0_925_2997)">
<path fill-rule="evenodd" clip-rule="evenodd" d="M12.0003 5.33317C9.79119 5.33317 8.00033 7.12403 8.00033 9.33317C8.00033 11.5423 9.79119 13.3332 12.0003 13.3332C14.2095 13.3332 16.0003 11.5423 16.0003 9.33317C16.0003 7.12403 14.2095 5.33317 12.0003 5.33317ZM5.33366 9.33317C5.33366 5.65127 8.31843 2.6665 12.0003 2.6665C15.6822 2.6665 18.667 5.65127 18.667 9.33317C18.667 13.0151 15.6822 15.9998 12.0003 15.9998C8.31843 15.9998 5.33366 13.0151 5.33366 9.33317ZM27.3337 9.33317C28.07 9.33317 28.667 9.93012 28.667 10.6665V13.3332H31.3337C32.07 13.3332 32.667 13.9301 32.667 14.6665C32.667 15.4029 32.07 15.9998 31.3337 15.9998H28.667V18.6665C28.667 19.4029 28.07 19.9998 27.3337 19.9998C26.5973 19.9998 26.0003 19.4029 26.0003 18.6665V15.9998H23.3337C22.5973 15.9998 22.0003 15.4029 22.0003 14.6665C22.0003 13.9301 22.5973 13.3332 23.3337 13.3332H26.0003V10.6665C26.0003 9.93012 26.5973 9.33317 27.3337 9.33317ZM2.61961 20.6191C3.86986 19.3689 5.56555 18.6665 7.33366 18.6665H16.667C18.4351 18.6665 20.1308 19.3689 21.381 20.6191C22.6313 21.8694 23.3337 23.5651 23.3337 25.3332V27.9998C23.3337 28.7362 22.7367 29.3332 22.0003 29.3332C21.2639 29.3332 20.667 28.7362 20.667 27.9998V25.3332C20.667 24.2723 20.2456 23.2549 19.4954 22.5047C18.7453 21.7546 17.7279 21.3332 16.667 21.3332H7.33366C6.27279 21.3332 5.25538 21.7546 4.50523 22.5047C3.75509 23.2549 3.33366 24.2723 3.33366 25.3332V27.9998C3.33366 28.7362 2.73671 29.3332 2.00033 29.3332C1.26395 29.3332 0.666992 28.7362 0.666992 27.9998V25.3332C0.666992 23.5651 1.36937 21.8694 2.61961 20.6191Z" fill="#CFBB95"/>
</g>
<defs>
<clipPath id="clip0_925_2997">
<rect width="32" height="32" fill="white" transform="translate(0.666992)"/>
</clipPath>
</defs>
</svg>
